<svg width="915" height="476" viewBox="0 0 915 476" fill="none" xmlns="http://www.w3.org/2000/svg">
<path d="M326.782 30.8037H397.855V367.075H326.782V30.8037Z" fill="url(#paint0_linear_5_91)"/>
<path d="M326.782 30.8037H397.855V367.075H326.782V30.8037Z" fill="url(#paint1_linear_5_91)"/>
<path d="M327.842 31.8645L396.263 31.8645L267.908 227.581L195.243 227.581L327.842 31.8645Z" fill="url(#paint2_linear_5_91)"/>
<path d="M327.842 31.8645L396.263 31.8645L267.908 227.581L195.243 227.581L327.842 31.8645Z" fill="url(#paint3_linear_5_91)"/>
<path d="M441.547 225.99L442 286.011L191.453 287.904L191 227.882L441.547 225.99Z" fill="url(#paint4_linear_5_91)"/>
<path d="M441.547 225.99L442 286.011L191.453 287.904L191 227.882L441.547 225.99Z" fill="url(#paint5_linear_5_91)"/>
<circle cx="578" cy="209" r="195" fill="#A7A7A7"/>
<circle cx="563" cy="209" r="180" fill="#D7D7D7"/>
<circle cx="563" cy="209" r="180" fill="#D7D7D7"/>
<circle cx="563" cy="209" r="180" fill="#D7D7D7"/>
<circle cx="563" cy="209" r="180" fill="#D7D7D7"/>
<circle cx="563" cy="209" r="180" fill="#D7D7D7"/>
<circle cx="547" cy="209" r="150" fill="#F7F7F7" fill-opacity="0.466667"/>
<circle cx="689" cy="173" r="25" fill="#7D7D7D"/>
<ellipse cx="687" cy="173.5" rx="23" ry="24" fill="#D9D9D9"/>
<circle cx="596" cy="184" r="12" fill="#7D7D7D"/>
<ellipse cx="595.04" cy="184.24" rx="11.04" ry="11.52" fill="#D9D9D9"/>
<circle cx="653" cy="87" r="15" fill="#7D7D7D"/>
<ellipse cx="651.8" cy="87.3" rx="13.8" ry="14.4" fill="#D9D9D9"/>
<circle cx="556" cy="292" r="50" fill="#7D7D7D"/>
<ellipse cx="552" cy="293" rx="46" ry="48" fill="#D9D9D9"/>
<circle cx="476.5" cy="147.5" r="33.5" fill="#7D7D7D"/>
<ellipse cx="473.82" cy="148.17" rx="30.82" ry="32.16" fill="#D9D9D9"/>
<circle cx="676" cy="292" r="23" fill="#7D7D7D"/>
<ellipse cx="674.16" cy="292.46" rx="21.16" ry="22.08" fill="#D9D9D9"/>
<path d="M799.782 44.8037H870.855V381.075H799.782V44.8037Z" fill="url(#paint6_linear_5_91)"/>
<path d="M799.782 44.8037H870.855V381.075H799.782V44.8037Z" fill="url(#paint7_linear_5_91)"/>
<path d="M800.842 45.8645L869.263 45.8645L740.908 241.581L668.243 241.581L800.842 45.8645Z" fill="url(#paint8_linear_5_91)"/>
<path d="M800.842 45.8645L869.263 45.8645L740.908 241.581L668.243 241.581L800.842 45.8645Z" fill="url(#paint9_linear_5_91)"/>
<path d="M914.547 239.99L915 300.011L664.453 301.904L664 241.882L914.547 239.99Z" fill="url(#paint10_linear_5_91)"/>
<path d="M914.547 239.99L915 300.011L664.453 301.904L664 241.882L914.547 239.99Z" fill="url(#paint11_linear_5_91)"/>
<path d="M348.552 467V441.8H363.276C364.764 441.8 366.12 442.148 367.344 442.844C368.592 443.516 369.588 444.44 370.332 445.616C371.076 446.792 371.448 448.1 371.448 449.54C371.448 451.052 371.04 452.432 370.224 453.68C369.408 454.904 368.328 455.888 366.984 456.632C365.64 457.352 364.164 457.712 362.556 457.712H352.44V467H348.552ZM352.44 453.968H362.196C363.108 453.968 363.948 453.764 364.716 453.356C365.508 452.948 366.132 452.408 366.588 451.736C367.068 451.064 367.308 450.332 367.308 449.54C367.308 448.796 367.068 448.124 366.588 447.524C366.132 446.924 365.508 446.444 364.716 446.084C363.948 445.724 363.108 445.544 362.196 445.544H352.44V453.968ZM377.269 467L389.581 441.8H394.117L406.357 467H402.073L393.613 449.648C393.397 449.192 393.181 448.748 392.965 448.316C392.749 447.884 392.533 447.452 392.317 447.02C392.125 446.588 391.933 446.132 391.741 445.652C391.549 445.172 391.357 444.644 391.165 444.068L392.317 444.032C392.101 444.608 391.885 445.148 391.669 445.652C391.477 446.156 391.273 446.636 391.057 447.092C390.841 447.548 390.625 448.004 390.409 448.46C390.193 448.892 389.977 449.336 389.761 449.792L381.373 467H377.269ZM382.633 461.096L384.181 457.352H399.121L399.733 461.096H382.633ZM428.557 467.36C426.565 467.36 424.669 467.084 422.869 466.532C421.069 465.98 419.473 465.164 418.081 464.084C416.689 463.004 415.585 461.66 414.769 460.052C413.977 458.42 413.581 456.536 413.581 454.4C413.581 452.6 413.977 450.92 414.769 449.36C415.561 447.8 416.665 446.444 418.081 445.292C419.521 444.116 421.177 443.204 423.049 442.556C424.945 441.908 426.973 441.584 429.133 441.584C430.957 441.584 432.637 441.788 434.173 442.196C435.733 442.604 437.101 443.132 438.277 443.78C439.477 444.428 440.413 445.124 441.085 445.868L438.565 448.712C437.701 448.04 436.765 447.464 435.757 446.984C434.773 446.48 433.717 446.084 432.589 445.796C431.485 445.508 430.333 445.364 429.133 445.364C427.525 445.364 426.025 445.592 424.633 446.048C423.265 446.504 422.053 447.14 420.997 447.956C419.965 448.772 419.161 449.732 418.585 450.836C418.009 451.916 417.721 453.104 417.721 454.4C417.721 455.984 418.021 457.364 418.621 458.54C419.245 459.692 420.085 460.64 421.141 461.384C422.197 462.128 423.385 462.68 424.705 463.04C426.049 463.4 427.441 463.58 428.881 463.58C430.345 463.58 431.713 463.448 432.985 463.184C434.281 462.896 435.409 462.5 436.369 461.996C437.329 461.468 438.073 460.856 438.601 460.16C439.129 459.464 439.357 458.708 439.285 457.892L439.249 457.424L439.825 458.216H429.061V454.436H443.461C443.509 454.796 443.545 455.084 443.569 455.3C443.593 455.516 443.605 455.684 443.605 455.804C443.605 455.9 443.605 455.996 443.605 456.092C443.605 457.988 443.233 459.644 442.489 461.06C441.769 462.476 440.737 463.652 439.393 464.588C438.073 465.5 436.489 466.196 434.641 466.676C432.817 467.132 430.789 467.36 428.557 467.36ZM454.478 467V441.8H475.394V445.544H458.366V463.256H475.394V467H454.478ZM456.602 455.948V452.204H473.414V455.948H456.602ZM505.173 467V441.8H509.025L529.473 462.428L529.257 462.752C529.137 462.032 529.029 461.264 528.933 460.448C528.861 459.608 528.801 458.756 528.753 457.892C528.705 457.004 528.657 456.116 528.609 455.228C528.585 454.316 528.561 453.428 528.537 452.564C528.537 451.7 528.537 450.872 528.537 450.08V441.8H532.425V467H528.501L508.305 447.128L508.341 446.624C508.389 447.056 508.437 447.572 508.485 448.172C508.533 448.772 508.593 449.42 508.665 450.116C508.737 450.812 508.797 451.532 508.845 452.276C508.917 452.996 508.965 453.728 508.989 454.472C509.037 455.192 509.061 455.876 509.061 456.524V467H505.173ZM558.816 467.36C556.584 467.36 554.544 467.036 552.696 466.388C550.848 465.716 549.24 464.792 547.872 463.616C546.504 462.416 545.448 461.036 544.704 459.476C543.96 457.892 543.588 456.2 543.588 454.4C543.588 452.6 543.96 450.92 544.704 449.36C545.448 447.776 546.504 446.396 547.872 445.22C549.24 444.02 550.848 443.096 552.696 442.448C554.544 441.776 556.584 441.44 558.816 441.44C561.024 441.44 563.052 441.776 564.9 442.448C566.748 443.096 568.356 444.02 569.724 445.22C571.092 446.396 572.148 447.776 572.892 449.36C573.66 450.92 574.044 452.6 574.044 454.4C574.044 456.2 573.66 457.892 572.892 459.476C572.148 461.036 571.092 462.416 569.724 463.616C568.356 464.792 566.748 465.716 564.9 466.388C563.052 467.036 561.024 467.36 558.816 467.36ZM558.816 463.58C560.472 463.58 561.984 463.352 563.352 462.896C564.72 462.416 565.908 461.768 566.916 460.952C567.924 460.112 568.704 459.14 569.256 458.036C569.808 456.908 570.084 455.696 570.084 454.4C570.084 453.104 569.808 451.904 569.256 450.8C568.704 449.672 567.924 448.7 566.916 447.884C565.908 447.044 564.72 446.396 563.352 445.94C561.984 445.46 560.472 445.22 558.816 445.22C557.16 445.22 555.636 445.46 554.244 445.94C552.876 446.396 551.688 447.044 550.68 447.884C549.672 448.7 548.892 449.672 548.34 450.8C547.812 451.904 547.548 453.104 547.548 454.4C547.548 455.696 547.812 456.908 548.34 458.036C548.892 459.14 549.672 460.112 550.68 460.952C551.688 461.768 552.876 462.416 554.244 462.896C555.636 463.352 557.16 463.58 558.816 463.58ZM590.723 467V445.544H581.147V441.8H604.403V445.544H594.611V467H590.723ZM632.017 467V441.8H635.905V467H632.017ZM633.313 456.632V452.888H651.061V456.632H633.313ZM633.817 445.544V441.8H652.681V445.544H633.817ZM677.258 467.36C675.026 467.36 672.986 467.036 671.138 466.388C669.29 465.716 667.682 464.792 666.314 463.616C664.946 462.416 663.89 461.036 663.146 459.476C662.402 457.892 662.03 456.2 662.03 454.4C662.03 452.6 662.402 450.92 663.146 449.36C663.89 447.776 664.946 446.396 666.314 445.22C667.682 444.02 669.29 443.096 671.138 442.448C672.986 441.776 675.026 441.44 677.258 441.44C679.466 441.44 681.494 441.776 683.342 442.448C685.19 443.096 686.798 444.02 688.166 445.22C689.534 446.396 690.59 447.776 691.334 449.36C692.102 450.92 692.486 452.6 692.486 454.4C692.486 456.2 692.102 457.892 691.334 459.476C690.59 461.036 689.534 462.416 688.166 463.616C686.798 464.792 685.19 465.716 683.342 466.388C681.494 467.036 679.466 467.36 677.258 467.36ZM677.258 463.58C678.914 463.58 680.426 463.352 681.794 462.896C683.162 462.416 684.35 461.768 685.358 460.952C686.366 460.112 687.146 459.14 687.698 458.036C688.25 456.908 688.526 455.696 688.526 454.4C688.526 453.104 688.25 451.904 687.698 450.8C687.146 449.672 686.366 448.7 685.358 447.884C684.35 447.044 683.162 446.396 681.794 445.94C680.426 445.46 678.914 445.22 677.258 445.22C675.602 445.22 674.078 445.46 672.686 445.94C671.318 446.396 670.13 447.044 669.122 447.884C668.114 448.7 667.334 449.672 666.782 450.8C666.254 451.904 665.99 453.104 665.99 454.4C665.99 455.696 666.254 456.908 666.782 458.036C667.334 459.14 668.114 460.112 669.122 460.952C670.13 461.768 671.318 462.416 672.686 462.896C674.078 463.352 675.602 463.58 677.258 463.58ZM715.87 467.216C713.326 467.216 711.106 466.688 709.21 465.632C707.314 464.552 705.838 463.088 704.782 461.24C703.726 459.392 703.198 457.292 703.198 454.94V441.764H707.086V454.796C707.086 456.452 707.47 457.94 708.238 459.26C709.03 460.556 710.086 461.576 711.406 462.32C712.75 463.064 714.238 463.436 715.87 463.436C717.598 463.436 719.134 463.064 720.478 462.32C721.822 461.576 722.878 460.556 723.646 459.26C724.438 457.94 724.834 456.452 724.834 454.796V441.764H728.542V454.94C728.542 457.292 728.014 459.392 726.958 461.24C725.902 463.088 724.426 464.552 722.53 465.632C720.634 466.688 718.414 467.216 715.87 467.216ZM741.212 467V441.8H745.064L765.512 462.428L765.296 462.752C765.176 462.032 765.068 461.264 764.972 460.448C764.9 459.608 764.84 458.756 764.792 457.892C764.744 457.004 764.696 456.116 764.648 455.228C764.624 454.316 764.6 453.428 764.576 452.564C764.576 451.7 764.576 450.872 764.576 450.08V441.8H768.464V467H764.54L744.344 447.128L744.38 446.624C744.428 447.056 744.476 447.572 744.524 448.172C744.572 448.772 744.632 449.42 744.704 450.116C744.776 450.812 744.836 451.532 744.884 452.276C744.956 452.996 745.004 453.728 745.028 454.472C745.076 455.192 745.1 455.876 745.1 456.524V467H741.212ZM781.572 467V441.8H794.316C796.62 441.8 798.648 442.136 800.4 442.808C802.176 443.48 803.664 444.404 804.864 445.58C806.064 446.732 806.964 448.064 807.564 449.576C808.164 451.088 808.464 452.696 808.464 454.4C808.464 456.128 808.164 457.76 807.564 459.296C806.964 460.808 806.064 462.14 804.864 463.292C803.664 464.444 802.176 465.356 800.4 466.028C798.648 466.676 796.62 467 794.316 467H781.572ZM785.46 463.652L785.352 463.256H794.136C795.936 463.256 797.472 463.028 798.744 462.572C800.04 462.116 801.096 461.48 801.912 460.664C802.728 459.848 803.328 458.912 803.712 457.856C804.12 456.776 804.324 455.624 804.324 454.4C804.324 453.2 804.12 452.072 803.712 451.016C803.328 449.96 802.728 449.024 801.912 448.208C801.096 447.368 800.04 446.72 798.744 446.264C797.472 445.784 795.936 445.544 794.136 445.544H785.244L785.46 445.22V463.652Z" fill="white"/>
<path d="M39.004 110.009L41.3287 108.628L56.4149 128.731L49.441 132.873L39.004 110.009Z" fill="#434449"/>
<path d="M25.2047 127.805L26.7008 126.357L45.5771 142.861L41.089 147.206L25.2047 127.805Z" fill="#434449"/>
<path d="M180.804 200.334C201.516 259.577 211.924 306.581 152.681 327.293C93.4381 348.005 70.3288 305.441 49.6169 246.198C25.5126 177.252 -2.58762 140.816 77.6765 112.755C136.92 92.0429 160.092 141.091 180.804 200.334Z" fill="#656A70"/>
<path d="M195.77 191.921C216.482 251.164 226.89 298.168 167.647 318.88C108.404 339.592 85.2951 297.029 64.5832 237.786C40.4789 168.84 12.3787 132.403 92.6428 104.342C151.886 83.6302 175.058 132.678 195.77 191.921Z" fill="#434449"/>
<ellipse cx="198.994" cy="347.806" rx="12.2849" ry="18.4274" transform="rotate(-2.7757 198.994 347.806)" fill="#7E7E7E"/>
<ellipse cx="211.553" cy="349.647" rx="12.2849" ry="23.2668" transform="rotate(-45.0421 211.553 349.647)" fill="#C7C7C7"/>
<path d="M229.653 318.081C232.042 335.645 239.157 362.814 223.006 367.397C210.193 365.036 217.958 358.418 187.179 326.087C181.726 320.358 188.87 310.412 201.111 307.996C213.353 305.58 227.264 300.516 229.653 318.081Z" fill="#F7F7F7"/>
<path d="M228.515 310.449C231.745 329.51 232.918 330.938 218.275 337.081C201.701 344.035 197.885 344.305 187.333 320.391C183.587 302.683 187.069 286.948 204.078 283.35C221.088 279.752 224.769 292.74 228.515 310.449Z" fill="#E7E7E7"/>
<ellipse cx="146.511" cy="378.996" rx="12.2849" ry="18.4274" transform="rotate(-2.7757 146.511 378.996)" fill="#7E7E7E"/>
<ellipse cx="160.082" cy="377.25" rx="12.2849" ry="23.2668" transform="rotate(-74.7684 160.082 377.25)" fill="#C7C7C7"/>
<path d="M192.762 338.275C184.247 380.424 184.644 388.607 167.851 389.421C156.036 383.079 169.304 371.354 144.545 334.397C139.636 327.07 155.051 316.372 167.513 316.987C179.976 317.603 201.276 296.126 192.762 338.275Z" fill="#F7F7F7"/>
<path d="M192.836 339.809C184.321 381.957 184.718 390.141 167.925 390.955C156.11 384.613 169.378 372.887 144.62 335.931C139.711 328.604 155.125 317.905 167.588 318.521C180.05 319.137 201.351 297.66 192.836 339.809Z" fill="#F7F7F7"/>
<path d="M193.932 326.489C194.984 348.204 187.474 352.411 170.108 353.253C156.058 353.935 151.457 354.158 144.85 328.868C143.973 310.789 149.917 295.81 167.282 294.968C184.648 294.126 193.055 308.409 193.932 326.489Z" fill="#E7E7E7"/>
<path d="M197.11 216.488C204.413 194.114 212.11 190.175 238.222 199.59C255.536 205.832 296.29 219.946 293.004 230.013C288.518 243.758 260.075 236.083 238.796 234.547C217.516 233.011 176.528 238.689 197.11 216.488Z" fill="#D9D9D9"/>
<path d="M203.958 212.332C197.889 220.039 198.71 236.178 227.343 234.295C246.534 233.033 283.125 243.631 290.994 233.197C296.307 226.154 260.149 231.523 239.036 225.809C217.924 220.095 215.812 219.524 203.958 212.332Z" fill="#A7A7A7"/>
<path d="M282.05 237.438C276.359 238.771 277.133 251.261 272.029 251.793C266.349 250.907 270.683 237.144 262.867 237.22C262.894 231.908 267.159 231.596 272.135 231.077C277.112 230.558 288.46 234.551 282.05 237.438Z" fill="#A7A7A7"/>
<path d="M267.174 228.637C269.902 224.505 273.667 220.59 278.043 223.479C282.418 226.367 285.53 225.093 282.803 229.225C278.475 230.396 277.307 243.804 272.931 240.916C268.556 238.027 274.351 230.689 267.174 228.637Z" fill="#D9D9D9"/>
<path d="M237.736 246.968C250.796 290.92 231.955 333.855 167.832 343.113C125.477 345.167 116.338 305.894 90.4894 254.106C71.7585 216.579 115.431 213.616 160.805 198.168C231.89 173.966 218.446 182.051 237.736 246.968Z" fill="#A7A7A7"/>
<path d="M237.263 243.545C249.647 285.245 241.26 325.974 170.994 334.762C130.838 336.708 119.13 305.759 97.6649 250.313C82.3236 210.686 121.31 211.898 164.326 197.244C231.719 174.285 218.973 181.955 237.263 243.545Z" fill="#E7E7E7"/>
<path d="M232.979 252.579C243.686 289.954 236.559 326.421 176.252 334.166C141.782 335.837 134.275 302.446 113.146 258.389C97.8349 226.464 133.376 224.022 170.279 210.973C228.094 190.529 217.165 197.377 232.979 252.579Z" fill="#DEDEDE"/>
<path d="M186.376 218.22C176.927 229.44 165.312 232.346 154.143 235.157C117.689 244.332 101.667 256.608 88.2633 255.752C33.5158 252.256 109.114 210.156 146.346 197.379C204.348 177.475 223.366 174.298 186.376 218.22Z" fill="#DEDEDE"/>
<path d="M235.808 249.679C246.083 284.872 239.18 319.228 181.073 326.586C147.865 328.196 140.668 296.752 120.359 255.276C105.642 225.222 139.883 222.884 175.448 210.555C231.166 191.239 220.631 197.7 235.808 249.679Z" fill="#9F9F9F"/>
<path d="M235.219 236.575C249.177 286.633 240.391 320.634 189.646 327.186C161.047 323.961 155.212 296.867 136.731 261.567C116.99 223.858 149.185 223.399 180.234 212.336C228.877 195.004 218.641 177.118 235.219 236.575Z" fill="#E7E7E7"/>
<path d="M223.88 230.728C222.184 236.965 189.642 253.869 167.01 258.463C144.378 263.058 137.389 266.959 131.16 263.753C124.931 260.547 146.147 257.582 161.231 254.52C214.578 243.691 222.629 222.247 223.88 230.728Z" fill="#9F9F9F"/>
<path d="M230.169 281.158C231.86 284.323 222.477 296.905 206.557 301.52C187.533 305.517 181.435 306.582 176.788 305.865C175.143 303.639 182.045 303.305 204.137 299.159C223.087 293.628 226.52 285.178 230.169 281.158Z" fill="#9F9F9F"/>
<circle cx="6.14246" cy="6.14246" r="6.14246" transform="matrix(0.998827 -0.0484262 -0.0484262 -0.998827 168.198 287.237)" fill="#A7A7A7"/>
<circle cx="6.14246" cy="6.14246" r="6.14246" transform="matrix(0.998827 -0.0484262 -0.0484262 -0.998827 169.658 285.629)" fill="#A0C9CA"/>
<circle cx="6.14246" cy="6.14246" r="6.14246" transform="matrix(0.998827 -0.0484262 -0.0484262 -0.998827 193.976 279.838)" fill="#A7A7A7"/>
<circle cx="6.14246" cy="6.14246" r="6.14246" transform="matrix(0.998827 -0.0484262 -0.0484262 -0.998827 195.435 278.229)" fill="#7AB8EF"/>
<circle cx="5.45997" cy="5.45997" r="5.45997" transform="matrix(0.998827 -0.0484262 -0.0484262 -0.998827 217.922 266.377)" fill="#A7A7A7"/>
<circle cx="5.45997" cy="5.45997" r="5.45997" transform="matrix(0.998827 -0.0484262 -0.0484262 -0.998827 219.219 264.948)" fill="#EFE286"/>
<path d="M240.688 133.39C243.161 184.4 203.814 227.757 152.804 230.231C101.793 232.704 58.4362 193.356 55.963 142.346C53.4899 91.3354 92.8372 47.9784 143.848 45.5053C194.858 43.0321 238.215 82.3794 240.688 133.39Z" fill="#D9D9D9"/>
<path d="M210.254 142.174C212.402 186.473 192.235 228.193 147.936 230.341C103.638 232.488 58.7479 193.923 56.6001 149.624C53.2526 86.4422 81.8572 68.0012 126.156 65.8535C170.454 63.7058 208.107 97.8758 210.254 142.174Z" fill="white"/>
<path d="M236.338 144.158C238.442 187.562 204.962 224.453 161.559 226.558C118.155 228.662 81.2635 195.182 79.1591 151.779C77.0548 108.375 110.534 71.4835 153.938 69.3791C197.342 67.2748 234.233 100.755 236.338 144.158Z" fill="#1A1837"/>
<path d="M201.263 135.618C203.094 173.379 173.966 205.475 136.205 207.306C98.4441 209.136 80.9004 184.818 79.0696 147.057C77.2389 109.295 110.534 71.4835 153.938 69.3791C169.732 70.1892 199.206 93.1799 201.263 135.618Z" fill="#060126"/>
<circle cx="204.853" cy="97.7706" r="4.8669" transform="rotate(-2.7757 204.853 97.7706)" fill="#E7E7E7"/>
<path d="M226.044 125.983C231.986 146.872 226.798 171.176 227.816 158.362C227.523 134.697 215.338 124.058 210.826 112.505C209.924 110.194 209.243 104.232 216.779 105.905C221.92 109.537 224.94 122.105 226.044 125.983Z" fill="#E7E7E7"/>
<path d="M63.3527 150.197C68.9858 182.251 94.7711 207.244 83.9053 192.32C67.2905 162.553 78.9774 136.918 77.8087 117.943C77.5749 114.148 74.3533 106.032 63.5841 115.776C58.0354 125.525 62.3067 144.246 63.3527 150.197Z" fill="#E7E7E7"/>
<circle cx="147.911" cy="138.322" r="91.9048" transform="rotate(-2.7757 147.911 138.322)" stroke="#A7A7A7" stroke-width="2"/>
<circle cx="37.9548" cy="105.986" r="7.67808" transform="rotate(-2.7757 37.9548 105.986)" fill="#9FC8C8"/>
<circle cx="24.3131" cy="125.866" r="5.37466" transform="rotate(-2.7757 24.3131 125.866)" fill="#7BB4DC"/>
<path d="M98.9117 238.959C105.965 262.035 102.299 269.98 76.9872 277.943C60.2048 283.222 21.0278 296.134 17.8539 285.75C13.5206 271.574 39.6336 260.75 56.7924 249.144C73.9512 237.539 102.122 207.985 98.9117 238.959Z" fill="#D9D9D9"/>
<path d="M36.2609 261.883C36.5079 266.979 33.7464 272.003 28.7643 272.245C23.7821 272.486 22.6782 277.648 22.4311 272.552C25.0824 268.955 17.841 254.853 22.8232 254.612C27.8054 254.37 29.6071 264.518 36.2609 261.883Z" fill="#D9D9D9"/>
<path d="M98.2927 253.517C104.039 260.973 102.141 270.175 76.8293 278.138C60.0469 283.417 25.1799 296.913 18.5812 287.3C12.2659 278.099 47.4706 281.333 66.6055 272.482C85.7404 263.632 87.6539 262.747 98.2927 253.517Z" fill="#A7A7A7"/>
<path d="M103.074 247.673C105.751 255.683 104.062 268.054 98.1719 273.599C89.2545 272.469 100.757 259.758 92.3901 247.196C84.023 234.635 72.0089 230.789 84.7365 226.534C90.5259 224.599 100.396 239.663 103.074 247.673Z" fill="#434449"/>
<defs>
<linearGradient id="paint0_linear_5_91" x1="362.318" y1="30.8037" x2="362.318" y2="367.075" gradientUnits="userSpaceOnUse">
<stop stop-color="white"/>
<stop offset="1" stop-color="white" stop-opacity="0"/>
</linearGradient>
<linearGradient id="paint1_linear_5_91" x1="362.318" y1="30.8037" x2="362.318" y2="367.075" gradientUnits="userSpaceOnUse">
<stop stop-color="white"/>
<stop offset="1" stop-color="white" stop-opacity="0"/>
</linearGradient>
<linearGradient id="paint2_linear_5_91" x1="355.334" y1="51.905" x2="202.775" y2="275.306" gradientUnits="userSpaceOnUse">
<stop stop-color="white"/>
<stop offset="1" stop-color="white" stop-opacity="0"/>
</linearGradient>
<linearGradient id="paint3_linear_5_91" x1="355.334" y1="51.905" x2="202.775" y2="275.306" gradientUnits="userSpaceOnUse">
<stop stop-color="white"/>
<stop offset="1" stop-color="white" stop-opacity="0"/>
</linearGradient>
<linearGradient id="paint4_linear_5_91" x1="441.773" y1="256.001" x2="191.227" y2="257.893" gradientUnits="userSpaceOnUse">
<stop stop-color="white"/>
<stop offset="1" stop-color="white" stop-opacity="0"/>
</linearGradient>
<linearGradient id="paint5_linear_5_91" x1="441.773" y1="256.001" x2="191.227" y2="257.893" gradientUnits="userSpaceOnUse">
<stop stop-color="white"/>
<stop offset="1" stop-color="white" stop-opacity="0"/>
</linearGradient>
<linearGradient id="paint6_linear_5_91" x1="835.318" y1="44.8037" x2="835.318" y2="381.075" gradientUnits="userSpaceOnUse">
<stop stop-color="white"/>
<stop offset="1" stop-color="white" stop-opacity="0"/>
</linearGradient>
<linearGradient id="paint7_linear_5_91" x1="835.318" y1="44.8037" x2="835.318" y2="381.075" gradientUnits="userSpaceOnUse">
<stop stop-color="white"/>
<stop offset="1" stop-color="white" stop-opacity="0"/>
</linearGradient>
<linearGradient id="paint8_linear_5_91" x1="828.334" y1="65.905" x2="675.775" y2="289.306" gradientUnits="userSpaceOnUse">
<stop stop-color="white"/>
<stop offset="1" stop-color="white" stop-opacity="0"/>
</linearGradient>
<linearGradient id="paint9_linear_5_91" x1="828.334" y1="65.905" x2="675.775" y2="289.306" gradientUnits="userSpaceOnUse">
<stop stop-color="white"/>
<stop offset="1" stop-color="white" stop-opacity="0"/>
</linearGradient>
<linearGradient id="paint10_linear_5_91" x1="914.773" y1="270.001" x2="664.227" y2="271.893" gradientUnits="userSpaceOnUse">
<stop stop-color="white"/>
<stop offset="1" stop-color="white" stop-opacity="0"/>
</linearGradient>
<linearGradient id="paint11_linear_5_91" x1="914.773" y1="270.001" x2="664.227" y2="271.893" gradientUnits="userSpaceOnUse">
<stop stop-color="white"/>
<stop offset="1" stop-color="white" stop-opacity="0"/>
</linearGradient>
</defs>
</svg>
